# xmcd
#
# Track frame offsets:
#	150
#	16945
#	34785
#	52890
#	69310
#	86855
#	103277
#	121127
#	135752
#	152912
#	170640
#	189135
#	207495
#	225660
#
# Disc length: 3239 seconds
#
# Revision: 1
# Processed by: cddbd v1.5PL3 Copyright (c) Steve Scherf et al.
# Submitted via: CDex 1.50Beta5
#
DISCID=b20ca50e
DTITLE=Various Artist - The Best Of Penthouse Vol.2
DYEAR=1900
DGENRE=
TTITLE0=Trying To Get To You
TTITLE1=Nana Medley
TTITLE2=Fire Burning
TTITLE3=Half Idiot
TTITLE4=Really Together
TTITLE5=Yush
TTITLE6=Innocent Man
TTITLE7=Hold On
TTITLE8=Soon As I Get Home
TTITLE9=Tom's Diner
TTITLE10=Respect TO You
TTITLE11=Respect and Honor
TTITLE12=Only Human
TTITLE13=Smaddy Pickney
EXTD=
EXTT0=
EXTT1=
EXTT2=
EXTT3=
EXTT4=
EXTT5=
EXTT6=
EXTT7=
EXTT8=
EXTT9=
EXTT10=
EXTT11=
EXTT12=
EXTT13=
PLAYORDER=
